<svg width="17" height="17" viewBox="0 0 17 17" fill="none" xmlns="http://www.w3.org/2000/svg">
<path d="M8.22583 0.5C12.6452 0.5 16.2258 4.08065 16.2258 8.5C16.2258 12.9194 12.6452 16.5 8.22583 16.5C3.80648 16.5 0.22583 12.9194 0.22583 8.5C0.22583 4.08065 3.80648 0.5 8.22583 0.5ZM7.29357 5.13226L9.72906 7.46774H3.83873C3.4097 7.46774 3.06454 7.8129 3.06454 8.24194V8.75806C3.06454 9.1871 3.4097 9.53226 3.83873 9.53226H9.72906L7.29357 11.8677C6.98067 12.1677 6.97422 12.6677 7.28067 12.9742L7.63551 13.3258C7.93873 13.629 8.42906 13.629 8.72906 13.3258L13.0097 9.04839C13.3129 8.74516 13.3129 8.25484 13.0097 7.95484L8.72906 3.67097C8.42583 3.36774 7.93551 3.36774 7.63551 3.67097L7.28067 4.02258C6.97422 4.33226 6.98067 4.83226 7.29357 5.13226Z" fill="#F29325"/>
</svg>
