<svg width="450" height="228" viewBox="0 0 450 228" fill="none" xmlns="http://www.w3.org/2000/svg">
<path d="M16.5148 226.404C13.1893 226.404 10.3858 225.725 8.11327 224.366C5.84077 223.007 4.22977 221.108 3.28027 218.664L9.87277 216.284C10.3003 217.751 11.1013 218.831 12.2758 219.533C13.4503 220.235 14.8768 220.586 16.5553 220.586C17.4418 220.586 18.2968 220.487 19.1203 220.289C19.9438 220.091 20.6323 219.753 21.1813 219.281C21.7303 218.808 22.0048 218.174 22.0048 217.382C22.0048 216.315 21.4873 215.483 20.4478 214.884C19.4083 214.29 18.0673 213.84 16.4203 213.534L12.7123 212.801C11.0653 212.463 9.53077 211.955 8.10877 211.266C6.69127 210.578 5.55277 209.664 4.69777 208.517C3.84277 207.374 3.41527 205.929 3.41527 204.188C3.41527 202.541 3.79777 201.119 4.55827 199.931C5.32327 198.738 6.33577 197.762 7.60477 197.001C8.86927 196.236 10.2688 195.665 11.7943 195.282C13.3198 194.9 14.8453 194.711 16.3753 194.711C18.0223 194.711 19.6198 194.94 21.1588 195.399C22.6978 195.858 24.0793 196.565 25.3033 197.528C26.5228 198.491 27.4543 199.764 28.0978 201.353L21.5503 203.733C21.1543 202.694 20.4433 201.902 19.4218 201.353C18.4003 200.804 17.1718 200.529 15.7363 200.529C14.3008 200.529 13.1623 200.781 12.2353 201.285C11.3038 201.789 10.8403 202.514 10.8403 203.459C10.8403 204.224 11.1598 204.876 11.8033 205.43C12.4468 205.983 13.2838 206.361 14.3233 206.573L18.4453 207.396C19.6963 207.639 20.9653 207.954 22.2478 208.337C23.5303 208.719 24.7138 209.223 25.7983 209.849C26.8828 210.474 27.7603 211.307 28.4308 212.346C29.1013 213.386 29.4388 214.695 29.4388 216.284C29.4388 217.872 29.0653 219.344 28.3183 220.613C27.5713 221.882 26.5768 222.939 25.3438 223.794C24.1063 224.649 22.7248 225.297 21.1993 225.738C19.6738 226.179 18.1168 226.404 16.5283 226.404H16.5148Z" fill="#025259"/>
<path d="M73.7051 225.855V195.269H97.2401V201.632H80.9366V206.942H90.8726V213.305H80.9366V219.488H97.2401V225.851H73.7051V225.855Z" fill="#025259"/>
<path d="M141.475 225.855V195.269H152.329L158.692 217.202L165.15 195.269H176.004V225.855H168.952V201.816L161.671 225.855H155.718L148.482 201.816V225.855H141.475Z" fill="#025259"/>
<path d="M221.836 225.855V220.176H226.143V200.943H221.836V195.264H237.586V200.943H233.374V220.176H237.586V225.855H221.836Z" fill="#025259"/>
<path d="M291.942 225.855V201.632H282.096V195.269H308.974V201.632H299.128V225.855H291.937H291.942Z" fill="#025259"/>
<path d="M352.89 225.855V195.269H376.425V201.632H360.121V206.942H370.057V213.305H360.121V219.488H376.425V225.851H352.89V225.855Z" fill="#025259"/>
<path d="M434.668 226.404C431.491 226.404 428.76 225.765 426.474 224.483C424.183 223.2 422.428 221.369 421.209 218.988C419.989 216.608 419.377 213.8 419.377 210.564C419.377 207.329 420.012 204.529 421.276 202.162C422.541 199.795 424.336 197.964 426.658 196.668C428.976 195.372 431.712 194.724 434.853 194.724C437.751 194.724 440.28 195.363 442.431 196.645C444.582 197.928 446.238 199.651 447.399 201.82L440.986 204.156C440.316 202.905 439.398 202.01 438.237 201.479C437.076 200.943 435.87 200.678 434.619 200.678C433.215 200.678 431.932 201.064 430.771 201.847C429.61 202.626 428.697 203.755 428.022 205.236C427.351 206.716 427.014 208.494 427.014 210.568C427.014 213.772 427.752 216.225 429.237 217.917C430.717 219.609 432.54 220.459 434.709 220.459C435.87 220.459 437.067 220.216 438.304 219.726C439.542 219.24 440.509 218.335 441.211 217.026L447.574 219.361C446.355 221.53 444.622 223.245 442.377 224.514C440.131 225.783 437.562 226.413 434.659 226.413L434.668 226.404Z" fill="#025259"/>
<path d="M424.301 1.47154H386.582C374.387 1.47154 364.496 11.358 364.496 23.5575V91.2825H322.241C311.657 91.2825 303.08 99.8595 303.08 110.444V154.008C303.08 164.592 311.657 173.169 322.241 173.169H424.301C436.496 173.169 446.387 163.283 446.387 151.083V23.553C446.387 11.358 436.5 1.46704 424.301 1.46704V1.47154ZM406.22 134.19C406.22 136.377 404.447 138.155 402.255 138.155H343.728L351.594 146.021C353.142 147.569 353.142 150.075 351.594 151.623C350.82 152.397 349.808 152.784 348.791 152.784C347.774 152.784 346.761 152.397 345.987 151.623L332.019 137.655C330.804 136.98 329.981 135.684 329.981 134.19C329.981 134.154 329.981 134.118 329.985 134.082C329.985 134.046 329.981 134.01 329.981 133.974C329.981 132.921 330.399 131.913 331.142 131.171L345.987 116.325C347.535 114.777 350.042 114.777 351.59 116.325C353.138 117.873 353.138 120.38 351.59 121.928L343.292 130.226H398.291V105.021C398.291 102.834 400.064 101.057 402.255 101.057C404.447 101.057 406.22 102.83 406.22 105.021V134.19Z" fill="#007172"/>
<path d="M96.3631 91.5255H44.9776C36.5536 91.5255 29.7271 98.352 29.7271 106.776V158.162C29.7271 166.586 36.5536 173.412 44.9776 173.412H96.3631C104.787 173.412 111.614 166.586 111.614 158.162V106.776C111.614 98.352 104.787 91.5255 96.3631 91.5255ZM57.0376 160.119C53.8336 160.119 51.2416 157.523 51.2416 154.323C51.2416 151.124 53.8381 148.527 57.0376 148.527C60.2371 148.527 62.8336 151.124 62.8336 154.323C62.8336 157.523 60.2371 160.119 57.0376 160.119ZM57.0376 138.515C53.8336 138.515 51.2416 135.918 51.2416 132.719C51.2416 129.519 53.8381 126.923 57.0376 126.923C60.2371 126.923 62.8336 129.519 62.8336 132.719C62.8336 135.918 60.2371 138.515 57.0376 138.515ZM84.303 138.515C81.099 138.515 78.5071 135.918 78.5071 132.719C78.5071 129.519 81.1035 126.923 84.303 126.923C87.5025 126.923 90.0991 129.519 90.0991 132.719C90.0991 135.918 87.5025 138.515 84.303 138.515ZM84.303 116.915C81.099 116.915 78.5071 114.318 78.5071 111.119C78.5071 107.919 81.1035 105.323 84.303 105.323C87.5025 105.323 90.0991 107.919 90.0991 111.119C90.0991 114.318 87.5025 116.915 84.303 116.915Z" fill="#F29325"/>
<path d="M186.142 91.5255H134.757C126.333 91.5255 119.506 98.352 119.506 106.776V158.162C119.506 166.586 126.333 173.412 134.757 173.412H186.142C194.566 173.412 201.393 166.586 201.393 158.162V106.776C201.393 98.352 194.566 91.5255 186.142 91.5255ZM146.817 116.915C143.613 116.915 141.021 114.318 141.021 111.119C141.021 107.919 143.617 105.323 146.817 105.323C150.016 105.323 152.613 107.919 152.613 111.119C152.613 114.318 150.016 116.915 146.817 116.915ZM174.082 138.515C170.878 138.515 168.286 135.918 168.286 132.719C168.286 129.519 170.883 126.923 174.082 126.923C177.282 126.923 179.878 129.519 179.878 132.719C179.878 135.918 177.282 138.515 174.082 138.515Z" fill="#F29325"/>
<path d="M275.922 91.5255H224.537C216.113 91.5255 209.286 98.352 209.286 106.776V158.162C209.286 166.586 216.113 173.412 224.537 173.412H275.922C284.346 173.412 291.173 166.586 291.173 158.162V106.776C291.173 98.352 284.346 91.5255 275.922 91.5255ZM236.597 116.915C233.393 116.915 230.801 114.318 230.801 111.119C230.801 107.919 233.397 105.323 236.597 105.323C239.796 105.323 242.393 107.919 242.393 111.119C242.393 114.318 239.796 116.915 236.597 116.915ZM263.862 116.915C260.658 116.915 258.066 114.318 258.066 111.119C258.066 107.919 260.663 105.323 263.862 105.323C267.062 105.323 269.658 107.919 269.658 111.119C269.658 114.318 267.062 116.915 263.862 116.915Z" fill="#F29325"/>
<path d="M69.0525 1.22412H17.6715C9.2475 1.22412 2.4165 8.05062 2.4165 16.4746V67.8601C2.4165 76.2841 9.243 83.1106 17.667 83.1106H69.0525C77.4765 83.1106 84.303 76.2841 84.303 67.8601V16.4746C84.303 8.05062 77.4765 1.22412 69.0525 1.22412ZM29.727 69.8131C26.523 69.8131 23.931 67.2166 23.931 64.0171C23.931 60.8176 26.5275 58.2211 29.727 58.2211C32.9265 58.2211 35.523 60.8176 35.523 64.0171C35.523 67.2166 32.9265 69.8131 29.727 69.8131ZM29.727 48.2131C26.523 48.2131 23.931 45.6166 23.931 42.4171C23.931 39.2176 26.5275 36.6211 29.727 36.6211C32.9265 36.6211 35.523 39.2176 35.523 42.4171C35.523 45.6166 32.9265 48.2131 29.727 48.2131ZM56.997 26.6086C53.793 26.6086 51.201 24.0121 51.201 20.8126C51.201 17.6131 53.7975 15.0166 56.997 15.0166C60.1965 15.0166 62.793 17.6131 62.793 20.8126C62.793 24.0121 60.1965 26.6086 56.997 26.6086Z" fill="#D94F04"/>
<path d="M158.832 1.22412H107.446C99.0223 1.22412 92.1958 8.05062 92.1958 16.4746V67.8601C92.1958 76.2841 99.0223 83.1106 107.446 83.1106H158.832C167.256 83.1106 174.082 76.2841 174.082 67.8601V16.4746C174.082 8.05062 167.256 1.22412 158.832 1.22412ZM119.506 26.6086C116.302 26.6086 113.71 24.0121 113.71 20.8126C113.71 17.6131 116.307 15.0166 119.506 15.0166C122.706 15.0166 125.302 17.6131 125.302 20.8126C125.302 24.0121 122.706 26.6086 119.506 26.6086ZM146.776 48.2131C143.572 48.2131 140.98 45.6166 140.98 42.4171C140.98 39.2176 143.577 36.6211 146.776 36.6211C149.976 36.6211 152.572 39.2176 152.572 42.4171C152.572 45.6166 149.976 48.2131 146.776 48.2131Z" fill="#D94F04"/>
<path d="M248.612 1.22412H197.226C188.802 1.22412 181.976 8.05062 181.976 16.4746V67.8601C181.976 76.2841 188.802 83.1106 197.226 83.1106H248.612C257.036 83.1106 263.862 76.2841 263.862 67.8601V16.4746C263.862 8.05062 257.036 1.22412 248.612 1.22412ZM209.286 69.8131C206.082 69.8131 203.49 67.2166 203.49 64.0171C203.49 60.8176 206.087 58.2211 209.286 58.2211C212.486 58.2211 215.082 60.8176 215.082 64.0171C215.082 67.2166 212.486 69.8131 209.286 69.8131ZM209.286 26.6086C206.082 26.6086 203.49 24.0121 203.49 20.8126C203.49 17.6131 206.087 15.0166 209.286 15.0166C212.486 15.0166 215.082 17.6131 215.082 20.8126C215.082 24.0121 212.486 26.6086 209.286 26.6086ZM236.556 26.6086C233.352 26.6086 230.76 24.0121 230.76 20.8126C230.76 17.6131 233.357 15.0166 236.556 15.0166C239.756 15.0166 242.352 17.6131 242.352 20.8126C242.352 24.0121 239.756 26.6086 236.556 26.6086Z" fill="#D94F04"/>
<path d="M338.391 1.22412H287.005C278.581 1.22412 271.755 8.05062 271.755 16.4746V67.8601C271.755 76.2841 278.581 83.1106 287.005 83.1106H338.391C346.815 83.1106 353.641 76.2841 353.641 67.8601V16.4746C353.641 8.05062 346.815 1.22412 338.391 1.22412ZM299.065 48.2131C295.861 48.2131 293.269 45.6166 293.269 42.4171C293.269 39.2176 295.866 36.6211 299.065 36.6211C302.265 36.6211 304.861 39.2176 304.861 42.4171C304.861 45.6166 302.265 48.2131 299.065 48.2131ZM326.335 26.6086C323.131 26.6086 320.539 24.0121 320.539 20.8126C320.539 17.6131 323.136 15.0166 326.335 15.0166C329.535 15.0166 332.131 17.6131 332.131 20.8126C332.131 24.0121 329.535 26.6086 326.335 26.6086Z" fill="#D94F04"/>
</svg>
