<?xml version="1.0" encoding="UTF-8"?>
<svg id="Layer_2" data-name="Layer 2" xmlns="http://www.w3.org/2000/svg" viewBox="0 0 1000 505.84">
  <defs>
    <style>
      .cls-1 {
        fill: #fff;
        stroke-width: 0px;
      }
    </style>
  </defs>
  <g>
    <path class="cls-1" d="M36.7,503.12c-7.39,0-13.62-1.51-18.67-4.53-5.05-3.02-8.63-7.24-10.74-12.67l14.65-5.29c.95,3.26,2.73,5.66,5.34,7.22,2.61,1.56,5.78,2.34,9.51,2.34,1.97,0,3.87-.22,5.7-.66,1.83-.44,3.36-1.19,4.58-2.24,1.22-1.05,1.83-2.46,1.83-4.22,0-2.37-1.15-4.22-3.46-5.55-2.31-1.32-5.29-2.32-8.95-3l-8.24-1.63c-3.66-.75-7.07-1.88-10.23-3.41-3.15-1.53-5.68-3.56-7.58-6.11-1.9-2.54-2.85-5.75-2.85-9.62,0-3.66.85-6.82,2.54-9.46,1.7-2.65,3.95-4.82,6.77-6.51,2.81-1.7,5.92-2.97,9.31-3.82,3.39-.85,6.78-1.27,10.18-1.27,3.66,0,7.21.51,10.63,1.53,3.42,1.02,6.49,2.59,9.21,4.73,2.71,2.14,4.78,4.97,6.21,8.5l-14.55,5.29c-.88-2.31-2.46-4.07-4.73-5.29-2.27-1.22-5-1.83-8.19-1.83s-5.72.56-7.78,1.68c-2.07,1.12-3.1,2.73-3.1,4.83,0,1.7.71,3.15,2.14,4.38s3.29,2.07,5.6,2.54l9.16,1.83c2.78.54,5.6,1.24,8.45,2.09,2.85.85,5.48,1.97,7.89,3.36,2.41,1.39,4.36,3.24,5.85,5.55,1.49,2.31,2.24,5.22,2.24,8.75s-.83,6.8-2.49,9.62c-1.66,2.82-3.87,5.17-6.61,7.07-2.75,1.9-5.82,3.34-9.21,4.32-3.39.98-6.85,1.48-10.38,1.48Z"/>
    <path class="cls-1" d="M163.79,501.9v-67.97h52.3v14.14h-36.23v11.8h22.08v14.14h-22.08v13.74h36.23v14.14h-52.3Z"/>
    <path class="cls-1" d="M314.39,501.9v-67.97h24.12l14.14,48.74,14.35-48.74h24.12v67.97h-15.67v-53.42l-16.18,53.42h-13.23l-16.08-53.42v53.42h-15.57Z"/>
    <path class="cls-1" d="M492.97,501.9v-12.62h9.57v-42.74h-9.57v-12.62h35v12.62h-9.36v42.74h9.36v12.62h-35Z"/>
    <path class="cls-1" d="M648.76,501.9v-53.83h-21.88v-14.14h59.73v14.14h-21.88v53.83h-15.98Z"/>
    <path class="cls-1" d="M784.2,501.9v-67.97h52.3v14.14h-36.23v11.8h22.08v14.14h-22.08v13.74h36.23v14.14h-52.3Z"/>
    <path class="cls-1" d="M965.93,503.12c-7.06,0-13.13-1.42-18.21-4.27-5.09-2.85-8.99-6.92-11.7-12.21-2.71-5.29-4.07-11.53-4.07-18.72s1.41-13.41,4.22-18.67c2.81-5.26,6.8-9.33,11.96-12.21,5.15-2.88,11.23-4.32,18.21-4.32,6.44,0,12.06,1.42,16.84,4.27,4.78,2.85,8.46,6.68,11.04,11.5l-14.25,5.19c-1.49-2.78-3.53-4.77-6.11-5.95-2.58-1.19-5.26-1.78-8.04-1.78-3.12,0-5.97.86-8.55,2.6-2.58,1.73-4.61,4.24-6.11,7.53-1.49,3.29-2.24,7.24-2.24,11.85,0,7.12,1.64,12.57,4.94,16.33,3.29,3.76,7.34,5.65,12.16,5.65,2.58,0,5.24-.54,7.99-1.63,2.75-1.08,4.9-3.09,6.46-6l14.14,5.19c-2.71,4.82-6.56,8.63-11.55,11.45-4.99,2.82-10.7,4.22-17.15,4.22Z"/>
  </g>
  <path class="cls-1" d="M942.89,3.27h-83.82c-27.1,0-49.08,21.97-49.08,49.08v150.5h-93.9c-23.52,0-42.58,19.06-42.58,42.58v96.81c0,23.52,19.06,42.58,42.58,42.58h226.8c27.1,0,49.08-21.97,49.08-49.08V52.34c0-27.1-21.97-49.08-49.08-49.08ZM902.71,298.2c0,4.86-3.94,8.81-8.81,8.81h-130.06l17.48,17.48c3.44,3.44,3.44,9.01,0,12.45-1.72,1.72-3.97,2.58-6.23,2.58s-4.51-.86-6.23-2.58l-31.04-31.04c-2.7-1.5-4.53-4.38-4.53-7.7,0-.08,0-.16.01-.24,0-.08-.01-.16-.01-.24,0-2.34.93-4.58,2.58-6.23l32.99-32.99c3.44-3.44,9.01-3.44,12.45,0,3.44,3.44,3.44,9.01,0,12.45l-18.44,18.44h122.22v-56.01c0-4.86,3.94-8.81,8.81-8.81s8.81,3.94,8.81,8.81v64.82Z"/>
  <path class="cls-1" d="M214.14,203.39h-114.19c-18.72,0-33.89,15.17-33.89,33.89v114.19c0,18.72,15.17,33.89,33.89,33.89h114.19c18.72,0,33.89-15.17,33.89-33.89v-114.19c0-18.72-15.17-33.89-33.89-33.89ZM126.75,355.82c-7.12,0-12.88-5.77-12.88-12.88s5.77-12.88,12.88-12.88,12.88,5.77,12.88,12.88-5.77,12.88-12.88,12.88ZM126.75,307.81c-7.12,0-12.88-5.77-12.88-12.88s5.77-12.88,12.88-12.88,12.88,5.77,12.88,12.88-5.77,12.88-12.88,12.88ZM187.34,307.81c-7.12,0-12.88-5.77-12.88-12.88s5.77-12.88,12.88-12.88,12.88,5.77,12.88,12.88-5.77,12.88-12.88,12.88ZM187.34,259.81c-7.12,0-12.88-5.77-12.88-12.88s5.77-12.88,12.88-12.88,12.88,5.77,12.88,12.88-5.77,12.88-12.88,12.88Z"/>
  <path class="cls-1" d="M413.65,203.39h-114.19c-18.72,0-33.89,15.17-33.89,33.89v114.19c0,18.72,15.17,33.89,33.89,33.89h114.19c18.72,0,33.89-15.17,33.89-33.89v-114.19c0-18.72-15.17-33.89-33.89-33.89ZM326.26,259.81c-7.12,0-12.88-5.77-12.88-12.88s5.77-12.88,12.88-12.88,12.88,5.77,12.88,12.88-5.77,12.88-12.88,12.88ZM386.85,307.81c-7.12,0-12.88-5.77-12.88-12.88s5.77-12.88,12.88-12.88,12.88,5.77,12.88,12.88-5.77,12.88-12.88,12.88Z"/>
  <path class="cls-1" d="M613.16,203.39h-114.19c-18.72,0-33.89,15.17-33.89,33.89v114.19c0,18.72,15.17,33.89,33.89,33.89h114.19c18.72,0,33.89-15.17,33.89-33.89v-114.19c0-18.72-15.17-33.89-33.89-33.89ZM525.77,259.81c-7.12,0-12.88-5.77-12.88-12.88s5.77-12.88,12.88-12.88,12.88,5.77,12.88,12.88-5.77,12.88-12.88,12.88ZM586.36,259.81c-7.12,0-12.88-5.77-12.88-12.88s5.77-12.88,12.88-12.88,12.88,5.77,12.88,12.88-5.77,12.88-12.88,12.88Z"/>
  <path class="cls-1" d="M153.45,2.72H39.27C20.55,2.72,5.37,17.89,5.37,36.61v114.19c0,18.72,15.17,33.89,33.89,33.89h114.19c18.72,0,33.89-15.17,33.89-33.89V36.61c0-18.72-15.17-33.89-33.89-33.89ZM66.06,155.14c-7.12,0-12.88-5.77-12.88-12.88s5.77-12.88,12.88-12.88,12.88,5.77,12.88,12.88-5.77,12.88-12.88,12.88ZM66.06,107.14c-7.12,0-12.88-5.77-12.88-12.88s5.77-12.88,12.88-12.88,12.88,5.77,12.88,12.88-5.77,12.88-12.88,12.88ZM126.66,59.13c-7.12,0-12.88-5.77-12.88-12.88s5.77-12.88,12.88-12.88,12.88,5.77,12.88,12.88-5.77,12.88-12.88,12.88Z"/>
  <path class="cls-1" d="M352.96,2.72h-114.19c-18.72,0-33.89,15.17-33.89,33.89v114.19c0,18.72,15.17,33.89,33.89,33.89h114.19c18.72,0,33.89-15.17,33.89-33.89V36.61c0-18.72-15.17-33.89-33.89-33.89ZM265.57,59.13c-7.12,0-12.88-5.77-12.88-12.88s5.77-12.88,12.88-12.88,12.88,5.77,12.88,12.88-5.77,12.88-12.88,12.88ZM326.17,107.14c-7.12,0-12.88-5.77-12.88-12.88s5.77-12.88,12.88-12.88,12.88,5.77,12.88,12.88-5.77,12.88-12.88,12.88Z"/>
  <path class="cls-1" d="M552.47,2.72h-114.19c-18.72,0-33.89,15.17-33.89,33.89v114.19c0,18.72,15.17,33.89,33.89,33.89h114.19c18.72,0,33.89-15.17,33.89-33.89V36.61c0-18.72-15.17-33.89-33.89-33.89ZM465.08,155.14c-7.12,0-12.88-5.77-12.88-12.88s5.77-12.88,12.88-12.88,12.88,5.77,12.88,12.88-5.77,12.88-12.88,12.88ZM465.08,59.13c-7.12,0-12.88-5.77-12.88-12.88s5.77-12.88,12.88-12.88,12.88,5.77,12.88,12.88-5.77,12.88-12.88,12.88ZM525.68,59.13c-7.12,0-12.88-5.77-12.88-12.88s5.77-12.88,12.88-12.88,12.88,5.77,12.88,12.88-5.77,12.88-12.88,12.88Z"/>
  <path class="cls-1" d="M751.98,2.72h-114.19c-18.72,0-33.89,15.17-33.89,33.89v114.19c0,18.72,15.17,33.89,33.89,33.89h114.19c18.72,0,33.89-15.17,33.89-33.89V36.61c0-18.72-15.17-33.89-33.89-33.89ZM664.59,107.14c-7.12,0-12.88-5.77-12.88-12.88s5.77-12.88,12.88-12.88,12.88,5.77,12.88,12.88-5.77,12.88-12.88,12.88ZM725.19,59.13c-7.12,0-12.88-5.77-12.88-12.88s5.77-12.88,12.88-12.88,12.88,5.77,12.88,12.88-5.77,12.88-12.88,12.88Z"/>
</svg>